<?xml version="1.0" standalone="no"?>
<!DOCTYPE svg PUBLIC "-//W3C//DTD SVG 20010904//EN"
 "http://www.w3.org/TR/2001/REC-SVG-20010904/DTD/svg10.dtd">
<svg version="1.0" xmlns="http://www.w3.org/2000/svg"
 width="640.000000pt" height="640.000000pt" viewBox="0 0 640.000000 640.000000"
 preserveAspectRatio="xMidYMid meet">
<metadata>
Created by potrace 1.14, written by Peter Selinger 2001-2017
</metadata>
<g transform="translate(0.000000,640.000000) scale(0.100000,-0.100000)"
fill="#000000" stroke="none">
<path d="M2766 5863 c-4 -5 -29 -13 -54 -20 -94 -23 -167 -45 -177 -53 -5 -4
-21 -11 -34 -15 -27 -8 -148 -63 -229 -103 -68 -34 -154 -112 -234 -210 -63
-78 -148 -208 -148 -227 0 -5 -6 -22 -14 -36 -25 -48 -40 -133 -41 -224 0 -87
1 -92 38 -149 21 -32 75 -94 118 -136 79 -76 80 -78 73 -116 -3 -22 -22 -84
-41 -139 -32 -92 -59 -185 -100 -340 -21 -77 -23 -296 -4 -342 9 -21 12 -64 9
-126 -3 -106 -10 -119 -113 -232 -62 -68 -93 -126 -101 -189 -6 -43 -5 -45 36
-74 23 -17 67 -36 98 -43 31 -7 61 -16 67 -21 5 -4 17 -8 27 -8 10 0 18 -2 18
-4 0 -8 -26 -53 -50 -86 -22 -31 -25 -45 -25 -125 0 -82 3 -96 34 -157 l33
-68 -16 -67 c-9 -38 -30 -108 -46 -158 -83 -253 -103 -317 -124 -395 -12 -47
-26 -92 -29 -100 -26 -63 -51 -137 -68 -205 -11 -44 -27 -107 -36 -140 -28
-113 2 -222 83 -300 53 -51 86 -57 172 -31 26 8 70 18 97 24 87 18 158 38 230
66 39 15 102 39 140 53 39 15 75 30 80 34 6 4 25 10 43 14 18 4 45 13 60 21
15 8 30 14 34 14 4 0 46 18 93 41 48 22 89 38 92 36 2 -3 -33 -49 -79 -103
-46 -55 -89 -107 -97 -117 -12 -15 -10 -22 15 -58 37 -54 253 -258 280 -265
14 -4 45 11 100 49 43 30 138 91 211 136 l132 82 75 -25 c41 -14 81 -26 90
-26 9 0 71 -19 138 -41 152 -51 220 -69 261 -69 30 0 38 8 107 111 41 62 84
126 95 144 17 28 86 129 201 295 31 45 156 213 214 289 25 32 86 105 137 163
50 57 101 116 113 131 l21 27 -20 29 c-12 16 -21 32 -21 35 0 4 -33 57 -73
119 -40 62 -83 133 -95 158 -19 41 -72 99 -91 99 -4 0 -5 17 -3 38 15 161 34
218 127 372 55 91 115 251 165 439 6 24 42 103 78 175 80 157 87 175 102 246
12 60 15 324 4 342 -4 6 -13 46 -20 87 -23 139 -42 226 -58 266 -19 51 -20 65
-1 65 21 0 11 59 -21 120 -13 25 -24 54 -24 65 0 11 -14 47 -30 79 -17 32 -30
60 -30 61 0 1 11 0 25 -3 16 -3 25 0 25 8 0 23 -105 153 -171 213 -219 198
-366 318 -422 347 -59 30 -67 32 -167 30 -155 -2 -341 32 -545 101 -16 5 -107
15 -201 21 -138 10 -182 9 -226 -1 -30 -7 -62 -12 -72 -10 -17 4 -16 6 4 32
28 35 18 47 -41 54 -24 3 -58 11 -76 19 -33 15 -115 19 -127 7z m-84 -1101
c23 -11 80 -32 126 -47 45 -15 82 -29 82 -31 0 -2 -23 -36 -52 -75 -48 -65
-53 -77 -56 -135 -8 -124 53 -266 166 -382 73 -75 80 -80 138 -91 l62 -12 6
-42 c12 -94 17 -413 6 -467 -6 -30 -15 -80 -21 -110 -12 -67 -39 -122 -88
-176 -88 -99 -174 -203 -187 -227 -14 -25 -114 -126 -137 -139 -15 -8 -25 -4
-47 17 -36 34 -58 28 -106 -31 -24 -29 -40 -41 -48 -35 -23 19 -87 30 -114 20
-21 -8 -28 -7 -36 8 -15 29 -106 117 -166 161 -68 50 -166 100 -211 108 -19 3
-43 9 -54 14 -11 5 -45 14 -75 20 -61 12 -130 52 -130 76 0 54 38 124 116 215
70 81 85 104 95 149 12 57 4 236 -12 246 -14 8 -10 202 6 269 17 75 49 194 59
220 41 111 72 206 81 255 4 19 12 40 17 47 5 7 7 16 4 21 -6 9 125 88 189 113
22 9 47 18 55 22 8 3 44 13 79 22 36 8 67 18 70 21 12 12 140 -5 183 -24z
m1162 -864 c17 -13 47 -31 67 -41 20 -10 52 -40 72 -67 l37 -49 0 -148 c0
-148 0 -148 -30 -193 -16 -25 -30 -48 -30 -52 0 -4 -19 -35 -43 -70 -34 -50
-52 -66 -83 -76 -21 -7 -66 -27 -100 -44 l-61 -31 -61 28 c-57 26 -61 29 -67
69 -3 22 -8 53 -11 69 -4 19 -2 27 9 27 18 0 68 50 61 61 -10 17 20 91 43 106
28 19 30 33 3 33 -35 0 -68 -46 -75 -105 -6 -43 -12 -55 -31 -64 -13 -6 -24
-15 -24 -21 0 -5 -7 -10 -16 -10 -10 0 -12 -5 -7 -12 4 -7 12 -44 18 -82 l10
-69 68 -28 c58 -23 73 -26 105 -17 20 6 46 17 57 24 11 8 38 19 60 25 22 6 54
21 71 35 37 27 174 252 174 284 0 18 3 20 14 11 26 -21 30 -115 11 -223 -16
-94 -26 -124 -60 -191 -9 -16 -13 -32 -10 -37 3 -4 29 -11 58 -15 28 -4 63
-13 77 -20 14 -7 66 -18 115 -25 50 -7 105 -19 124 -26 18 -8 47 -14 63 -14
25 0 29 -3 23 -17 -3 -10 -11 -38 -17 -63 -5 -25 -14 -59 -19 -76 -5 -17 -9
-45 -9 -64 0 -25 -10 -44 -42 -80 -24 -26 -74 -87 -113 -136 -38 -48 -101
-122 -139 -164 -37 -41 -107 -122 -154 -180 -47 -58 -120 -143 -162 -190 -42
-47 -131 -150 -198 -230 -198 -236 -292 -336 -387 -415 -49 -40 -92 -72 -96
-70 -3 3 -9 42 -12 87 -5 86 -23 158 -60 242 -21 47 -21 48 -2 62 10 8 26 14
34 14 16 0 102 43 125 61 13 10 136 97 218 153 76 52 102 81 141 157 18 35 38
73 45 84 28 50 42 95 52 165 12 83 15 234 5 251 -4 5 -17 56 -30 113 -13 57
-33 124 -44 149 -12 25 -21 51 -21 57 0 5 -4 18 -9 28 -6 9 -22 46 -38 82 -15
36 -49 103 -76 150 -71 123 -79 146 -89 245 -5 50 -11 113 -14 140 -5 47 -2
54 36 103 22 29 52 70 66 92 22 33 31 39 50 34 17 -4 24 -2 24 9 0 8 9 35 20
60 16 36 32 52 76 77 97 56 158 64 208 28z m-1169 -2688 c21 -22 37 -40 34
-40 -3 0 -23 18 -44 40 -21 22 -37 40 -34 40 3 0 23 -18 44 -40z"/>
<path d="M3693 3864 c-12 -3 -40 -25 -62 -49 -35 -38 -41 -51 -41 -88 0 -24 4
-47 8 -52 5 -6 15 -26 22 -45 15 -39 77 -110 97 -110 21 0 15 20 -11 41 -71
56 -102 192 -53 236 80 74 182 51 247 -55 35 -56 35 -58 35 -172 0 -110 -1
-118 -32 -180 -37 -73 -38 -80 -20 -80 12 0 49 66 83 148 16 39 17 54 7 144
-9 82 -16 107 -39 140 -16 22 -33 50 -39 62 -21 42 -132 75 -202 60z"/>
</g>
</svg>
